<?xml version="1.0" encoding="UTF-8" standalone="no"?>
<svg xmlns="http://www.w3.org/2000/svg" version="1.1" width="600" height="600" viewbox="0 0 600 600">
<title>WhatsApp Image 2020-11-18 at 06.00.31</title><path d="M300,0 L0,0 L0,300 L0,600 L300,600 L600,600 L600,300 L600,0 L300,0 " fill="rgb(241, 177, 193)" stroke="none" fill-rule="evenodd"></path><path d="M300,0 L0,0 L0,300 L0,600 L300,600 L600,600 L600,300 L600,0 L300,0 " fill="rgb(255, 255, 255)" stroke="none" fill-rule="evenodd"></path><path d="M293,92 C292.45,92,289.975,92.225,287.5,92.5 C285.025,92.775,277.825,93.675,271.5,94.5 C265.175,95.325,253.475,97.8,245.5,100 C237.525,102.2,224.7,106.7,217,110 C209.3,113.3,197.375,119.6,190.5,124 C183.625,128.4,172.6,136.5,166,142 C159.4,147.5,150.85,155.6,147,160 C143.15,164.4,136.85,172.275,133,177.5 C129.15,182.725,123.525,191.275,120.5,196.5 C117.475,201.725,113.425,209.6,111.5,214 C109.575,218.4,106.65,225.825,105,230.5 C103.35,235.175,100.875,243.5,99.5,249 C98.125,254.5,96.325,263.05,95.5,268 C94.675,272.95,93.55,283.075,93,290.5 C92.45,297.925,92.675,310.75,93.5,319 C94.325,327.25,96.35,339.85,98,347 C99.65,354.15,103.7,366.75,107,375 C110.3,383.25,115.925,395.175,119.5,401.5 C123.075,407.825,129.15,417.275,133,422.5 C136.85,427.725,144.05,436.275,149,441.5 C153.95,446.725,162.05,454.375,167,458.5 C171.95,462.625,180.05,468.7,185,472 C189.95,475.3,198.05,480.025,203,482.5 C207.95,484.975,212.9,487.225,214,487.5 C215.369,487.842,216.158,485.477,216.5,480 C216.875,473.999,216.125,470.75,213.5,467 C211.575,464.25,209.55,459.075,209,455.5 C208.45,451.925,206.425,446.525,204.5,443.5 C202.575,440.475,200.1,433.95,199,429 C197.9,424.05,197.45,416.175,198,411.5 C198.55,406.825,200.575,398.5,202.5,393 C204.425,387.5,208.025,379.4,210.5,375 C212.975,370.6,215.225,365.425,215.5,363.5 C215.775,361.575,215.775,359.325,215.5,358.5 C215.225,357.675,215.9,353.625,217,349.5 C218.1,345.375,221.025,339.075,223.5,335.5 L228,329 L223,322.5 C220.25,318.925,216.2,313.3,214,310 C211.469,306.204,207.245,302.531,202.5,300 C197.834,297.511,193.678,293.922,191.5,290.5 C189.575,287.475,187.55,281.4,187,277 C186.45,272.6,186,265.175,186,260.5 C186,255.313,187.169,250.051,189,247 C190.65,244.25,194.25,240.2,197,238 C199.75,235.8,203.125,233.325,204.5,232.5 C205.875,231.675,209.25,226.725,212,221.5 C214.75,216.275,219.475,208.85,222.5,205 C225.525,201.15,230.7,195.525,234,192.5 C237.3,189.475,242.7,185.2,246,183 C249.3,180.8,255.15,177.65,259,176 C262.85,174.35,269.15,172.1,273,171 C276.85,169.9,283.15,168.55,287,168 C290.85,167.45,295.575,166.775,297.5,166.5 C299.425,166.225,303.025,166.225,305.5,166.5 C307.975,166.775,313.375,167.675,317.5,168.5 C321.625,169.325,329.05,171.575,334,173.5 C338.95,175.425,346.15,179.025,350,181.5 C353.85,183.975,360.15,188.925,364,192.5 C367.85,196.075,373.25,201.925,376,205.5 C378.75,209.075,382.35,214.25,384,217 C385.65,219.75,388.8,222.9,391,224 C393.2,225.1,397.025,227.35,399.5,229 C401.975,230.65,405.35,234.25,407,237 C408.65,239.75,410.45,245.15,411,249 C411.55,252.85,412.225,259.375,412.5,263.5 C412.775,267.625,411.875,273.7,410.5,277 C409.125,280.3,406.425,284.575,404.5,286.5 C402.575,288.425,398.75,291.35,396,293 C392.669,294.999,389.832,298.503,387.5,303.5 C385.575,307.625,381.75,314.15,379,318 C376.25,321.85,373.325,325.9,372.5,327 C371.675,328.1,371.225,329.9,371.5,331 C371.775,332.1,373.35,334.575,375,336.5 C376.65,338.425,379.125,343.15,380.5,347 C381.875,350.85,383,356.7,383,360 C383,363.889,385.111,370.046,389,377.5 C392.3,383.825,395.9,391.7,397,395 C398.1,398.3,399.675,405.275,400.5,410.5 C401.325,415.725,401.325,423.6,400.5,428 C399.675,432.4,398.1,437.8,397,440 C395.9,442.2,394.775,445.125,394.5,446.5 C394.225,447.875,394.45,450.8,395,453 C395.55,455.2,395.55,458.8,395,461 C394.45,463.2,392.875,466.125,391.5,467.5 C390.125,468.875,387.65,471.125,386,472.5 C384.071,474.107,383,476.964,383,480.5 C383,483.525,383.675,486.45,384.5,487 C385.325,487.55,389.825,486.2,394.5,484 C399.175,481.8,406.825,477.525,411.5,474.5 C416.175,471.475,424.95,464.95,431,460 C437.05,455.05,445.375,447.4,449.5,443 C453.625,438.6,459.925,431.175,463.5,426.5 C467.075,421.825,472.25,414.4,475,410 C477.75,405.6,482.25,397.5,485,392 C487.75,386.5,491.575,377.725,493.5,372.5 C495.425,367.275,498.125,358.95,499.5,354 C500.875,349.05,502.9,339.6,504,333 C505.1,326.4,506.225,312.45,506.5,302 C506.775,291.55,506.775,280.975,506.5,278.5 C506.225,276.025,504.65,267.25,503,259 C501.35,250.75,497.3,236.8,494,228 C490.7,219.2,485.3,207.05,482,201 C478.7,194.95,472.4,185.05,468,179 C463.6,172.95,457.75,165.525,455,162.5 C452.25,159.475,448.425,155.425,446.5,153.5 C444.575,151.575,438.5,146.175,433,141.5 C427.5,136.825,418.05,129.85,412,126 C405.95,122.15,397.4,117.2,393,115 C388.6,112.8,380.275,109.2,374.5,107 C368.725,104.8,359.95,101.875,355,100.5 C350.05,99.125,341.05,97.1,335,96 C328.95,94.9,317.25,93.55,309,93 C300.75,92.45,293.55,92,293,92 M410.5,164 C410.775,164.55,412.575,165.45,414.5,166 C416.425,166.55,417.55,167.225,417,167.5 C416.45,167.775,414.875,168.45,413.5,169 C412.125,169.55,410.775,169.775,410.5,169.5 C410.225,169.225,408.2,168.775,406,168.5 L402,168 L405.5,167.5 C407.425,167.225,409.225,166.1,409.5,165 C409.775,163.9,410.225,163.45,410.5,164 M295.5,172 C291.375,172,283.5,173.125,278,174.5 C272.5,175.875,265.975,177.9,263.5,179 C261.025,180.1,255.4,183.25,251,186 C246.6,188.75,239.85,194.15,236,198 C232.15,201.85,226.75,208.375,224,212.5 C221.25,216.625,217.425,223.375,215.5,227.5 C212.721,233.455,210.558,235.824,205,239 C201.15,241.2,196.875,244.575,195.5,246.5 C194.125,248.425,192.55,251.8,192,254 C191.45,256.2,191,261.825,191,266.5 C191,271.175,191.675,277.475,192.5,280.5 C193.325,283.525,195.8,287.8,198,290 C200.2,292.2,203.8,294.675,206,295.5 C208.2,296.325,211.35,298.125,213,299.5 C214.65,300.875,218.25,305.6,221,310 C223.75,314.4,228.025,320.7,230.5,324 L235,330 L233,333 C231.9,334.65,229.65,337.575,228,339.5 C226.35,341.425,224.325,344.8,223.5,347 C222.675,349.2,221.55,355.5,221,361 C220.396,367.038,218.613,373.179,216.5,376.5 C214.575,379.525,211.875,384.475,210.5,387.5 C209.125,390.525,207.1,396.375,206,400.5 C204.9,404.625,203.775,412.275,203.5,417.5 C203.189,423.418,204.131,429.828,206,434.5 C207.65,438.625,210.125,443.8,211.5,446 C212.875,448.2,214.225,452.475,214.5,455.5 C214.775,458.525,216.575,463.025,218.5,465.5 C221.241,469.024,222,472.387,222,481 C222,487.05,222.675,492.225,223.5,492.5 C224.325,492.775,225.45,488.275,226,482.5 L227,472 L236.5,471.5 C241.725,471.225,247.125,471.225,248.5,471.5 C249.875,471.775,252.125,474.025,253.5,476.5 C254.875,478.975,258.025,482.125,260.5,483.5 C262.975,484.875,270.4,486.9,277,488 C283.6,489.1,295.075,490,302.5,490 C309.925,490,320.275,489.1,325.5,488 C330.725,486.9,336.35,485.55,338,485 C339.65,484.45,342.125,482.65,343.5,481 C344.875,479.35,346.675,476.425,347.5,474.5 L349,471 L359.5,471 C367.223,471,370.264,471.661,371,473.5 C371.55,474.875,372.675,479.825,373.5,484.5 C374.325,489.175,375.45,492.325,376,491.5 C376.55,490.675,377.225,488.425,377.5,486.5 C377.775,484.575,377.775,480.975,377.5,478.5 C377.225,476.025,377.45,473.1,378,472 C378.55,470.9,381.025,468.65,383.5,467 C385.975,465.35,388.675,461.975,389.5,459.5 C390.325,457.025,390.325,452.75,389.5,450 C388.425,446.417,388.85,443.299,391,439 C392.65,435.7,394.675,429.625,395.5,425.5 C396.325,421.375,396.325,413.95,395.5,409 C394.675,404.05,392.2,395.725,390,390.5 C387.8,385.275,384.2,377.85,382,374 C379.44,369.52,378,364.48,378,360 C378,356.15,376.65,350.075,375,346.5 C373.35,342.925,369.975,337.525,367.5,334.5 L363,329 L370,320 C373.85,315.05,379.25,306.725,382,301.5 C384.75,296.275,388.575,291.1,390.5,290 C392.425,288.9,396.25,285.975,399,283.5 C401.75,281.025,404.675,277.2,405.5,275 C406.325,272.8,407.225,270.1,407.5,269 C407.775,267.9,407.775,264.975,407.5,262.5 C407.225,260.025,406.775,255.075,406.5,251.5 C406.225,247.925,404.65,242.75,403,240 C401.35,237.25,398.2,234.1,396,233 C393.8,231.9,389.975,230.1,387.5,229 C384.49,227.662,381.51,224.352,378.5,219 C376.025,214.6,369.725,206.5,364.5,201 C359.275,195.5,351.4,188.75,347,186 C342.6,183.25,335.85,179.875,332,178.5 C328.15,177.125,323.2,175.55,321,175 C318.8,174.45,313.85,173.55,310,173 C306.15,172.45,299.625,172,295.5,172 M185.5,173 C185.775,173,186.225,174.35,186.5,176 C186.775,177.65,186.775,181.025,186.5,183.5 C186.123,186.891,185.754,187.384,185,185.5 C184.45,184.125,184.225,180.75,184.5,178 C184.775,175.25,185.225,173,185.5,173 M300.5,176.5 C305.175,176.775,312.375,177.675,316.5,178.5 C320.625,179.325,327.825,181.575,332.5,183.5 C337.175,185.425,344.6,189.475,349,192.5 C353.4,195.525,359.25,200.475,362,203.5 L367,209 L356.5,203.5 C350.725,200.475,341.5,196.65,336,195 C330.5,193.35,322.175,191.55,317.5,191 C312.825,190.45,302.475,190.225,294.5,190.5 C286.525,190.775,276.625,191.675,272.5,192.5 C268.375,193.325,261.625,195.125,257.5,196.5 C253.375,197.875,246.175,201.025,241.5,203.5 C236.825,205.975,233.225,207.325,233.5,206.5 C233.775,205.675,235.575,203.425,237.5,201.5 C239.425,199.575,244.825,195.3,249.5,192 C254.175,188.7,262.05,184.425,267,182.5 C271.95,180.575,279.6,178.325,284,177.5 C288.4,176.675,295.825,176.225,300.5,176.5 M435.5,193 C435.843,195.059,437.254,196.157,440,196.5 L444,197 L440.5,198 C438.248,198.643,436.643,200.426,436,203 L435,207 L434.5,203.5 C434.179,201.253,432.926,199.821,431,199.5 L428,199 L431,198.5 C433.059,198.157,434.157,196.746,434.5,194 C434.897,190.822,435.103,190.616,435.5,193 M289,194 C290.65,194,296.275,194.225,301.5,194.5 C306.725,194.775,314.15,195.45,318,196 C321.85,196.55,327.7,197.675,331,198.5 C334.3,199.325,340.6,201.35,345,203 C349.4,204.65,356.6,208.25,361,211 C365.4,213.75,370.575,217.8,372.5,220 C374.425,222.2,375.775,224.225,375.5,224.5 C375.225,224.775,372.3,222.975,369,220.5 C365.7,218.025,358.5,213.75,353,211 C347.5,208.25,336.7,204.65,329,203 C321.3,201.35,311.625,200,307.5,200 C303.375,200,297.975,199.775,295.5,199.5 C293.025,199.225,288.75,199.45,286,200 C283.25,200.55,277.175,201.675,272.5,202.5 C267.825,203.325,260.625,205.125,256.5,206.5 C252.375,207.875,246.75,210.125,244,211.5 C241.25,212.875,235.175,216.7,230.5,220 L222,226 L224,222 C225.1,219.8,229.15,215.75,233,213 C236.85,210.25,244.5,205.975,250,203.5 C255.5,201.025,265.85,197.875,273,196.5 C280.15,195.125,287.35,194,289,194 M161,213.5 C161.55,215.425,163.35,217.45,165,218 L168,219 L165.5,219.5 C164.016,219.797,162.797,221.625,162.5,224 L162,228 L161,224.5 C160.45,222.575,158.425,220.325,156.5,219.5 L153,218 L156,217.5 C157.926,217.179,159.179,215.747,159.5,213.5 L160,210 L161,213.5 M296,213 L305,213 L300.5,215 C298.025,216.1,293.525,217.9,290.5,219 C287.475,220.1,282.75,222.125,280,223.5 C277.25,224.875,272.075,228.025,268.5,230.5 C264.925,232.975,259.075,238.15,255.5,242 C251.593,246.207,246.008,255.184,241.5,264.5 C237.375,273.025,233.1,284.05,232,289 L230,298 L228.5,291 C227.675,287.15,226.775,281.525,226.5,278.5 C226.225,275.475,226.225,268.725,226.5,263.5 C226.775,258.275,228.125,250.85,229.5,247 C230.875,243.15,233.125,238.425,234.5,236.5 C235.875,234.575,239.475,231.2,242.5,229 C245.525,226.8,251.6,223.425,256,221.5 C260.4,219.575,269.175,216.875,275.5,215.5 C281.825,214.125,291.05,213,296,213 M386.5,233 C388.425,233.55,392.25,235.8,395,238 C398.354,240.683,400.494,243.976,401.5,248 C402.325,251.3,403,256.925,403,260.5 C403,264.075,402.325,269.25,401.5,272 C400.675,274.75,398.65,278.35,397,280 C395.35,281.65,392.425,283.675,390.5,284.5 L387,286 L388.5,283.5 C389.325,282.125,390.225,276.95,390.5,272 C390.775,267.05,390.55,259.4,390,255 C389.45,250.6,388.55,245.2,388,243 C387.45,240.8,386.1,237.425,385,235.5 L383,232 L386.5,233 M211,240 C211.55,240,211.325,241.35,210.5,243 C209.675,244.65,208.55,249.825,208,254.5 C207.45,259.175,207.675,267.95,208.5,274 C209.325,280.05,210.9,287.025,212,289.5 C213.1,291.975,213.325,293.775,212.5,293.5 C211.675,293.225,209.425,292.325,207.5,291.5 C205.575,290.675,202.65,288.65,201,287 C199.35,285.35,197.325,280.625,196.5,276.5 C195.675,272.375,195,266.75,195,264 C195,261.25,195.9,256.525,197,253.5 C198.216,250.156,201.156,246.432,204.5,244 C207.525,241.8,210.45,240,211,240 M360,246 C361.65,246,364.575,247.125,366.5,248.5 C368.848,250.177,370.165,252.811,370.5,256.5 C370.775,259.525,370.55,263.575,370,265.5 C369.45,267.425,367.875,270.575,366.5,272.5 C365.125,274.425,362.65,276.225,361,276.5 C359.35,276.775,356.425,276.325,354.5,275.5 C352.575,274.675,350.1,271.975,349,269.5 C347.9,267.025,347.225,263.875,347.5,262.5 C347.775,261.125,348.675,258.2,349.5,256 C350.325,253.8,352.35,250.65,354,249 C355.65,247.35,358.35,246,360,246 M345,286 C346.65,286,348.9,287.125,350,288.5 C351.1,289.875,351.775,291.9,351.5,293 C351.225,294.1,349.875,296.125,348.5,297.5 C347.067,298.933,344.72,299.573,343,299 C341.35,298.45,339.775,296.875,339.5,295.5 C339.225,294.125,339.675,291.425,340.5,289.5 C341.414,287.367,343.172,286,345,286 M442,304.5 C442.55,305.875,442.55,309.475,442,312.5 L441,318 L440,315 C439.45,313.35,439.45,309.75,440,307 C440.764,303.179,441.236,302.59,442,304.5 M133.5,315 L138,316 L134.5,316.5 C132.575,316.775,130.775,317.9,130.5,319 C130.225,320.1,129.775,320.325,129.5,319.5 C129.225,318.675,127.2,317.775,125,317.5 L121,317 L125,315.5 C127.2,314.675,131.025,314.45,133.5,315 M294.5,320.5 C296.506,320.787,298.427,322.28,299,324 C299.55,325.65,300.225,329.025,300.5,331.5 C300.775,333.975,300.775,338.25,300.5,341 C300.225,343.75,299.775,345.775,299.5,345.5 C299.225,345.225,298.775,345.225,298.5,345.5 C298.225,345.775,296.2,345.775,294,345.5 L290,345 L289,340 C288.45,337.25,288,332.525,288,329.5 C288,326.475,288.675,323.1,289.5,322 C290.325,320.9,292.575,320.225,294.5,320.5 M467,335 L468,340 L473,340.5 L478,341 L473.5,342.5 C470.121,343.626,468.626,345.246,467.5,349 L466,354 L465,349 L464,344 L459.5,343 L455,342 L459.5,341 L464,340 L465,335 L466,330 L467,335 M176,337 L177,341 L182.5,342 L188,343 L185,344 C183.35,344.55,180.875,345.45,179.5,346 C178.109,346.556,176.778,348.997,176.5,351.5 L176,356 L175,351.5 C174.242,348.089,172.79,346.516,169,345 L164,343 L169,342 L174,341 L174.5,337 L175,333 L176,337 M248.5,333 C248.775,333,252.825,334.575,257.5,336.5 C262.175,338.425,270.95,341.125,277,342.5 C284.744,344.26,287.112,345.296,285,346 C283.35,346.55,279.75,346.775,277,346.5 C274.25,346.225,270.2,345.55,268,345 C265.8,344.45,260.85,342.2,257,340 C253.15,337.8,249.55,335.325,249,334.5 C248.45,333.675,248.225,333,248.5,333 M347.5,334 C348.325,334,348.55,334.675,348,335.5 C347.45,336.325,344.75,338.35,342,340 C339.25,341.65,334.3,343.9,331,345 C327.7,346.1,322.075,347,318.5,347 C314.925,347,310.2,346.55,308,346 L304,345 L312,343.5 C316.4,342.675,322.25,341.55,325,341 C327.75,340.45,333.6,338.65,338,337 C342.4,335.35,346.675,334,347.5,334 M359,335.5 C359.55,335.775,361.575,337.125,363.5,338.5 C365.425,339.875,368.35,343.25,370,346 C371.65,348.75,373.225,353.7,373.5,357 L374,363 L365.5,355.5 C360.825,351.375,354.75,346.65,352,345 C349.25,343.35,347.225,341.775,347.5,341.5 C347.775,341.225,350.25,339.65,353,338 C355.75,336.35,358.45,335.225,359,335.5 M239,336 C240.1,336,241.675,336.45,242.5,337 C243.325,337.55,245.8,338.9,248,340 C250.93,341.465,251.465,342.268,250,343 C248.9,343.55,243.95,347.15,239,351 C234.05,354.85,229.1,359.35,228,361 L226,364 L225.5,360.5 C225.225,358.575,225.675,354.75,226.5,352 C227.325,349.25,230.025,344.525,232.5,341.5 C234.975,338.475,237.9,336,239,336 M256.5,345 C256.775,345,255.2,348.6,253,353 C250.8,357.4,247.875,361.9,246.5,363 C245.125,364.1,243.325,365.9,242.5,367 C241.675,368.1,241.225,371.025,241.5,373.5 C241.775,375.975,242.9,379.125,244,380.5 C245.1,381.875,246.675,385.7,247.5,389 C248.616,393.466,248.233,396.407,246,400.5 L243,406 L240.5,404.5 C239.125,403.675,234.625,403.9,230.5,405 C226.375,406.1,220.525,408.8,217.5,411 C214.475,413.2,211.1,416.8,210,419 L208,423 L207.5,420 C207.225,418.35,207.45,414.3,208,411 C208.55,407.7,210.35,400.95,212,396 C213.65,391.05,217.25,383.4,220,379 C222.75,374.6,227.7,368.075,231,364.5 C234.3,360.925,241.275,355.075,246.5,351.5 C251.725,347.925,256.225,345,256.5,345 M342.5,346 C342.775,346,345.7,347.575,349,349.5 C352.3,351.425,358.15,355.7,362,359 C365.85,362.3,371.475,368.15,374.5,372 C377.525,375.85,381.575,382.15,383.5,386 C385.425,389.85,388.125,397.05,389.5,402 C390.875,406.95,392,413.7,392,417 L392,423 L390,420 C388.9,418.35,386.2,415.2,384,413 C381.8,410.8,376.4,407.65,372,406 C366.708,404.016,362.646,403.508,360,404.5 C356.866,405.675,355.567,405.351,354,403 C352.9,401.35,351.775,398.65,351.5,397 C351.225,395.35,351.45,392.2,352,390 C352.55,387.8,353.9,384.65,355,383 C356.1,381.35,357.225,377.525,357.5,374.5 C357.775,371.475,357.1,367.875,356,366.5 C354.9,365.125,352.875,362.875,351.5,361.5 C350.125,360.125,347.425,356.075,345.5,352.5 C343.575,348.925,342.225,346,342.5,346 M261.5,350 C262.325,350,265.025,350.225,267.5,350.5 C269.975,350.775,277.175,351,283.5,351 C289.825,351,303.775,350.775,314.5,350.5 C325.225,350.225,335.575,350.675,337.5,351.5 C339.467,352.343,341.657,354.971,342.5,357.5 C343.325,359.975,343.775,361.775,343.5,361.5 C343.225,361.225,342.775,361.225,342.5,361.5 C342.225,361.775,339.525,362,336.5,362 C333.475,362,328.975,362.225,326.5,362.5 C324.025,362.775,311.65,363,299,363 C286.35,363,273.975,362.775,271.5,362.5 C269.025,362.225,264.075,362.225,260.5,362.5 C256.925,362.775,254.225,362.325,254.5,361.5 C254.775,360.675,256.125,357.75,257.5,355 C258.875,352.25,260.675,350,261.5,350 M252.5,366.5 C252.775,366.775,258.625,367,265.5,367 C272.375,367,280.025,367.225,282.5,367.5 C284.975,367.775,297.125,368,309.5,368 C321.875,368,336.275,368.225,341.5,368.5 L351,369 L351.5,372 C351.775,373.65,351.55,375.675,351,376.5 C350.45,377.325,330.875,378,307.5,378 C284.125,378,262.975,378.225,260.5,378.5 C258.025,378.775,253.975,378.775,251.5,378.5 L247,378 L246.5,373.5 C246.137,370.237,246.825,368.588,249,367.5 C250.65,366.675,252.225,366.225,252.5,366.5 M430.5,374.5 C430.797,375.984,433.234,377.609,436.5,378.5 L442,380 L437,381 C433.46,381.708,431.854,382.876,431.5,385 L431,388 L430,385.5 C429.45,384.125,428.1,382.55,427,382 C425.9,381.45,423.425,380.55,421.5,380 L418,379 L423.5,378 C426.989,377.366,429.183,376.086,429.5,374.5 C429.9,372.5,430.1,372.5,430.5,374.5 M153,381.5 L154,386 L159,386.5 L164,387 L159,388.5 C155.027,389.692,153.795,390.924,153,394.5 C152.368,397.342,151.816,398.079,151.5,396.5 C151.225,395.125,150.55,392.875,150,391.5 C149.444,390.109,147.003,388.778,144.5,388.5 L140,388 L145,387 L150,386 L151,381.5 L152,377 L153,381.5 M250.5,382.5 C250.775,382.775,255.05,383,260,383 C264.95,383,273.275,383.225,278.5,383.5 C283.777,383.778,288.445,384.889,289,386 C289.55,387.1,290,390.925,290,394.5 C290,398.075,290.9,403.025,292,405.5 C293.1,407.975,295.575,410.9,297.5,412 C299.425,413.1,302.35,415.125,304,416.5 C305.65,417.875,307.45,421.475,308,424.5 C308.55,427.525,310.125,431.575,311.5,433.5 C312.875,435.425,316.475,438.125,319.5,439.5 C322.525,440.875,326.35,443.125,328,444.5 L331,447 L329.5,457 C328.675,462.5,327.325,468.575,326.5,470.5 C325.407,473.05,322.963,474.543,317.5,476 C313.375,477.1,304.825,477.775,298.5,477.5 C292.175,477.225,284.75,476.55,282,476 C279.25,475.45,275.875,474.1,274.5,473 C273.083,471.867,271.133,466.017,270,459.5 C268.9,453.175,268.225,446.875,268.5,445.5 C268.775,444.125,269.675,443.225,270.5,443.5 C271.325,443.775,271.775,443.775,271.5,443.5 C271.225,443.225,271.9,442.775,273,442.5 C274.1,442.225,277.025,441.325,279.5,440.5 C281.975,439.675,285.35,437.425,287,435.5 C288.65,433.575,290.675,429.525,291.5,426.5 C292.325,423.475,293.9,420.775,295,420.5 C296.1,420.225,297.9,420.675,299,421.5 C300.1,422.325,300.775,423.9,300.5,425 C300.225,426.1,298.65,427.45,297,428 C295.35,428.55,293.325,429.9,292.5,431 C291.675,432.1,291.225,432.775,291.5,432.5 C291.775,432.225,293.35,432.225,295,432.5 C296.65,432.775,299.125,432.55,300.5,432 C301.875,431.45,303.225,429.65,303.5,428 C303.775,426.35,303.325,423.425,302.5,421.5 C301.637,419.486,299.301,417.575,297,417 C294.559,416.39,291.831,414.051,290,411 C288.35,408.25,285.875,404.875,284.5,403.5 C283.125,402.125,279.525,399.875,276.5,398.5 C273.475,397.125,270.55,395.325,270,394.5 C269.45,393.675,267.425,392.1,265.5,391 C263.575,389.9,260.425,389.45,258.5,390 C256.575,390.55,254.775,391.45,254.5,392 C254.225,392.55,253.775,392.1,253.5,391 C253.225,389.9,252.325,387.425,251.5,385.5 C250.675,383.575,250.225,382.225,250.5,382.5 M322,383 C329.7,383,338.025,383.225,340.5,383.5 C342.975,383.775,345.675,383.775,346.5,383.5 C347.325,383.225,347.775,383.225,347.5,383.5 C347.225,383.775,346.775,385.575,346.5,387.5 C346.225,389.425,345.775,390.775,345.5,390.5 C345.225,390.225,342.975,389.775,340.5,389.5 C338.025,389.225,334.65,390.125,333,391.5 C331.35,392.875,328.65,394.9,327,396 C325.35,397.1,320.625,399.575,316.5,401.5 C312.375,403.425,309.225,404.775,309.5,404.5 C309.775,404.225,309.775,403.55,309.5,403 C309.225,402.45,308.775,399.975,308.5,397.5 C308.225,395.025,308,390.75,308,388 L308,383 L322,383 M298,384.5 C300.503,384.813,302.374,386.123,303,388 C303.55,389.65,304.225,395.5,304.5,401 L305,411 L302,409.5 C300.35,408.675,297.875,407.1,296.5,406 C294.801,404.641,294,400.796,294,394 L294,384 L298,384.5 M263.5,395 C265.425,395.55,266.55,396.225,266,396.5 C265.45,396.775,262.75,398.575,260,400.5 C257.25,402.425,253.425,404.9,251.5,406 L248,408 L249.5,405 C250.325,403.35,253.025,400.2,255.5,398 C258.729,395.13,260.989,394.282,263.5,395 M337.5,394.5 C338.875,394.775,341.8,396.35,344,398 C346.2,399.65,348.675,402.575,349.5,404.5 L351,408 L342.5,402 C337.825,398.7,333.55,396.225,333,396.5 C332.45,396.775,332.675,396.325,333.5,395.5 C334.325,394.675,336.125,394.225,337.5,394.5 M269,402 C270.65,402,274.025,402.9,276.5,404 C278.975,405.1,282.35,408.025,284,410.5 C285.801,413.202,286.8,417.198,286.5,420.5 C286.225,423.525,285.1,427.575,284,429.5 C282.9,431.425,278.625,434.575,274.5,436.5 C270.375,438.425,264.525,442.025,261.5,444.5 C258.475,446.975,253.525,450.125,250.5,451.5 C247.475,452.875,242.3,453.775,239,453.5 C235.7,453.225,230.975,452.325,228.5,451.5 C226.025,450.675,222.2,448.65,220,447 C217.8,445.35,214.425,441.3,212.5,438 C210.345,434.306,209.384,430.655,210,428.5 C210.55,426.575,212.575,422.75,214.5,420 C216.425,417.25,220.25,413.65,223,412 C225.75,410.35,230.025,409.225,232.5,409.5 C234.975,409.775,239.025,410.45,241.5,411 C244.723,411.716,248.838,410.581,256,407 C261.5,404.25,267.35,402,269,402 M326.5,402 C327.325,402,329.8,402.45,332,403 C334.2,403.55,338.925,405.575,342.5,407.5 C346.075,409.425,350.35,411.225,352,411.5 C353.65,411.775,356.575,411.325,358.5,410.5 C360.425,409.675,364.025,409.225,366.5,409.5 C368.975,409.775,372.575,410.675,374.5,411.5 C376.425,412.325,380.025,415.025,382.5,417.5 C384.975,419.975,387.675,423.575,388.5,425.5 C389.325,427.425,389.325,431.025,388.5,433.5 C387.675,435.975,385.425,440.025,383.5,442.5 C381.575,444.975,377.525,448.35,374.5,450 C371.475,451.65,366.525,453.225,363.5,453.5 C360.475,453.775,355.525,453.325,352.5,452.5 C349.475,451.675,344.075,448.75,340.5,446 C336.925,443.25,330.625,439.425,326.5,437.5 C322.375,435.575,317.65,432.425,316,430.5 C314.35,428.575,312.775,424.975,312.5,422.5 C312.225,420.025,312.9,415.75,314,413 C315.1,410.25,318.025,406.65,320.5,405 C322.975,403.35,325.675,402,326.5,402 M307.5,439 C306.125,439,304.55,440.125,304,441.5 C303.45,442.875,303.225,444.9,303.5,446 C303.775,447.1,305.125,448.45,306.5,449 C307.875,449.55,310.125,449.325,311.5,448.5 C312.875,447.675,314.225,446.1,314.5,445 C314.775,443.9,313.875,442.1,312.5,441 C311.125,439.9,308.875,439,307.5,439 M284.5,443 C284.225,443,283.325,443.45,282.5,444 C281.675,444.55,279.2,444.775,277,444.5 C274.8,444.225,273.225,444.45,273.5,445 C273.775,445.55,275.8,446.225,278,446.5 C280.2,446.775,282.675,446.1,283.5,445 C284.325,443.9,284.775,443,284.5,443 M265,455 C266.1,459.4,267.45,465.25,268,468 C268.55,470.75,270.35,474.35,272,476 C273.65,477.65,278.6,479.675,283,480.5 C287.4,481.325,295.725,481.775,301.5,481.5 C307.275,481.225,314.7,480.55,318,480 C321.3,479.45,325.575,477.875,327.5,476.5 C330.156,474.603,331.603,470.986,333.5,461.5 C335.397,452.014,336.362,449.603,337.5,451.5 C338.325,452.875,338.55,457.6,338,462 C337.45,466.4,336.1,472.025,335,474.5 C333.9,476.975,331.875,479.9,330.5,481 C329.125,482.1,324.4,483.675,320,484.5 C315.6,485.325,306.825,486,300.5,486 C294.175,486,286.3,485.55,283,485 C279.7,484.45,275.2,483.325,273,482.5 C270.8,481.675,267.65,479.425,266,477.5 C264.35,475.575,262.325,469.95,261.5,465 C260.675,460.05,260.675,453.975,261.5,451.5 L263,447 L265,455 M385,451.5 C385.55,452.875,385.325,456.025,384.5,458.5 C383.657,461.029,381.467,463.657,379.5,464.5 C377.575,465.325,371.725,466,366.5,466 C361.275,466,355.2,465.55,353,465 C350.181,464.295,348.852,462.967,348.5,460.5 C348.225,458.575,348.225,457.225,348.5,457.5 C348.775,457.775,351.475,458.225,354.5,458.5 C357.525,458.775,362.25,458.55,365,458 C367.75,457.45,372.7,455.875,376,454.5 C379.3,453.125,382.45,451.325,383,450.5 C383.588,449.618,384.412,450.03,385,451.5 M219.5,453.5 C219.775,453.775,223.15,455.125,227,456.5 C230.85,457.875,237.15,458.775,241,458.5 C244.85,458.225,249.125,457.55,250.5,457 C251.875,456.45,252.775,456.45,252.5,457 C252.225,457.55,251.55,459.8,251,462 L250,466 L238,465.5 C230.588,465.191,224.853,464.044,223,462.5 C221.35,461.125,219.775,458.425,219.5,456.5 C219.225,454.575,219.225,453.225,219.5,453.5 M292,455.5 C289.17,455.146,287.269,456.024,285.5,458.5 C284.125,460.425,283.225,463.575,283.5,465.5 C283.852,467.967,285.328,469.443,288.5,470.5 C291.618,471.539,293.922,471.232,296,469.5 C297.65,468.125,299.225,465.65,299.5,464 C299.775,462.35,299.1,459.875,298,458.5 C296.9,457.125,294.2,455.775,292,455.5 M316,457 C315.45,457,313.875,458.35,312.5,460 C310.856,461.972,310.514,464.028,311.5,466 C312.552,468.105,314.194,468.851,317,468.5 C320.178,468.103,321.103,467.178,321.5,464 C321.804,461.57,321.019,459.411,319.5,458.5 C318.125,457.675,316.55,457,316,457 M289.5,458 C289.775,458,291.125,458.45,292.5,459 C293.97,459.588,294.794,461.236,294.5,463 C294.179,464.926,292.747,466.179,290.5,466.5 C288.575,466.775,286.775,466.1,286.5,465 C286.225,463.9,286.675,461.875,287.5,460.5 C288.325,459.125,289.225,458,289.5,458 M343,464.5 C343.55,465.325,343.775,467.575,343.5,469.5 C343.225,471.425,342.1,474.125,341,475.5 C339.524,477.344,339.393,476.033,340.5,470.5 C341.325,466.375,342.45,463.675,343,464.5 M258,470 C258.55,471.1,258.775,472.225,258.5,472.5 C258.225,472.775,257.775,471.875,257.5,470.5 C257.148,468.738,257.295,468.59,258,470 " fill="rgb(0, 0, 0)" stroke="none" fill-rule="evenodd"></path></svg>